<?xml version="1.0" standalone="no"?><svg xmlns="http://www.w3.org/2000/svg" viewBox="0 0 1440 320"><path fill="#0099ff" fill-opacity="1" d="M0,96L12.6,117.3C25.3,139,51,181,76,213.3C101.1,245,126,267,152,250.7C176.8,235,202,181,227,160C252.6,139,278,149,303,128C328.4,107,354,53,379,48C404.2,43,429,85,455,122.7C480,160,505,192,531,176C555.8,160,581,96,606,69.3C631.6,43,657,53,682,53.3C707.4,53,733,43,758,58.7C783.2,75,808,117,834,154.7C858.9,192,884,224,909,229.3C934.7,235,960,213,985,218.7C1010.5,224,1036,256,1061,272C1086.3,288,1112,288,1137,282.7C1162.1,277,1187,267,1213,224C1237.9,181,1263,107,1288,96C1313.7,85,1339,139,1364,160C1389.5,181,1415,171,1427,165.3L1440,160L1440,320L1427.4,320C1414.7,320,1389,320,1364,320C1338.9,320,1314,320,1288,320C1263.2,320,1238,320,1213,320C1187.4,320,1162,320,1137,320C1111.6,320,1086,320,1061,320C1035.8,320,1011,320,985,320C960,320,935,320,909,320C884.2,320,859,320,834,320C808.4,320,783,320,758,320C732.6,320,707,320,682,320C656.8,320,632,320,606,320C581.1,320,556,320,531,320C505.3,320,480,320,455,320C429.5,320,404,320,379,320C353.7,320,328,320,303,320C277.9,320,253,320,227,320C202.1,320,177,320,152,320C126.3,320,101,320,76,320C50.5,320,25,320,13,320L0,320Z"></path></svg>